<svg width="109" height="32" viewBox="0 0 109 32" fill="none" xmlns="http://www.w3.org/2000/svg">
<path d="M2 29.5L9.5 18.5L13.5 22.5L17 13L20.5 17.5L28.5 2" stroke="#D63031" stroke-width="3"/>
<rect x="1.5" y="2.5" width="28" height="28" stroke="#0984E3" stroke-width="3"/>
<path d="M38.0977 17.7812L41.75 28.0938L45.3828 17.7812H49.2305V32H46.291V28.1133L46.584 21.4043L42.7461 32H40.7344L36.9062 21.4141L37.1992 28.1133V32H34.2695V17.7812H38.0977ZM59.9922 29.0703H54.8555L53.8789 32H50.7637L56.0566 17.7812H58.7715L64.0938 32H60.9785L59.9922 29.0703ZM55.6465 26.6973H59.2012L57.4141 21.375L55.6465 26.6973ZM69.875 26.2969L68.3516 27.9375V32H65.4219V17.7812H68.3516V24.2266L69.6406 22.459L73.2637 17.7812H76.8672L71.8184 24.0996L77.0137 32H73.5273L69.875 26.2969ZM86.6719 25.8379H81.0469V29.6465H87.6484V32H78.1172V17.7812H87.6289V20.1543H81.0469V23.543H86.6719V25.8379ZM94.6309 26.7949H92.2969V32H89.3672V17.7812H94.6504C96.3301 17.7812 97.6257 18.1556 98.5371 18.9043C99.4486 19.653 99.9043 20.7109 99.9043 22.0781C99.9043 23.0482 99.6927 23.8587 99.2695 24.5098C98.8529 25.1543 98.2181 25.6686 97.3652 26.0527L100.441 31.8633V32H97.2969L94.6309 26.7949ZM92.2969 24.4219H94.6602C95.3958 24.4219 95.9655 24.2363 96.3691 23.8652C96.7728 23.4876 96.9746 22.9701 96.9746 22.3125C96.9746 21.6419 96.7826 21.1146 96.3984 20.7305C96.0208 20.3464 95.4382 20.1543 94.6504 20.1543H92.2969V24.4219Z" fill="black"/>
<path d="M34.2695 15V0.78125H39.25C40.9753 0.78125 42.2839 1.11328 43.1758 1.77734C44.0677 2.4349 44.5137 3.40169 44.5137 4.67773C44.5137 5.37435 44.3346 5.98958 43.9766 6.52344C43.6185 7.05078 43.1204 7.43815 42.4824 7.68555C43.2116 7.86784 43.7845 8.23568 44.2012 8.78906C44.6243 9.34245 44.8359 10.0195 44.8359 10.8203C44.8359 12.1875 44.3997 13.2227 43.5273 13.9258C42.6549 14.6289 41.4115 14.987 39.7969 15H34.2695ZM37.1992 8.80859V12.6465H39.709C40.3991 12.6465 40.9362 12.4837 41.3203 12.1582C41.7109 11.8262 41.9062 11.3704 41.9062 10.791C41.9062 9.48893 41.2324 8.82812 39.8848 8.80859H37.1992ZM37.1992 6.73828H39.3672C40.8451 6.71224 41.584 6.12305 41.584 4.9707C41.584 4.32617 41.3952 3.86393 41.0176 3.58398C40.6465 3.29753 40.0573 3.1543 39.25 3.1543H37.1992V6.73828ZM57.8047 0.78125V10.1465C57.8047 11.7025 57.3164 12.9329 56.3398 13.8379C55.3698 14.7428 54.0417 15.1953 52.3555 15.1953C50.6953 15.1953 49.377 14.7559 48.4004 13.877C47.4238 12.998 46.9258 11.7904 46.9062 10.2539V0.78125H49.8359V10.166C49.8359 11.097 50.0573 11.7773 50.5 12.207C50.9492 12.6302 51.5677 12.8418 52.3555 12.8418C54.0026 12.8418 54.8392 11.9759 54.8652 10.2441V0.78125H57.8047ZM60.207 15V0.78125H64.582C65.832 0.78125 66.9486 1.06445 67.9316 1.63086C68.9212 2.19076 69.6927 2.99154 70.2461 4.0332C70.7995 5.06836 71.0762 6.24674 71.0762 7.56836V8.22266C71.0762 9.54427 70.8027 10.7194 70.2559 11.748C69.7155 12.7767 68.9505 13.5742 67.9609 14.1406C66.9714 14.707 65.8548 14.9935 64.6113 15H60.207ZM63.1367 3.1543V12.6465H64.5527C65.6986 12.6465 66.5742 12.2721 67.1797 11.5234C67.7852 10.7747 68.0944 9.70378 68.1074 8.31055V7.55859C68.1074 6.11328 67.8079 5.01953 67.209 4.27734C66.61 3.52865 65.7344 3.1543 64.582 3.1543H63.1367ZM84.4648 13.2031C83.9375 13.8346 83.1921 14.3262 82.2285 14.6777C81.265 15.0228 80.1973 15.1953 79.0254 15.1953C77.7949 15.1953 76.7142 14.9284 75.7832 14.3945C74.8587 13.8542 74.1426 13.0729 73.6348 12.0508C73.1335 11.0286 72.8763 9.82747 72.8633 8.44727V7.48047C72.8633 6.0612 73.1009 4.83398 73.5762 3.79883C74.0579 2.75716 74.748 1.96289 75.6465 1.41602C76.5514 0.86263 77.6094 0.585938 78.8203 0.585938C80.5065 0.585938 81.8249 0.989583 82.7754 1.79688C83.7259 2.59766 84.2891 3.76628 84.4648 5.30273H81.6133C81.4831 4.48893 81.1934 3.89323 80.7441 3.51562C80.3014 3.13802 79.6895 2.94922 78.9082 2.94922C77.9121 2.94922 77.1536 3.32357 76.6328 4.07227C76.112 4.82096 75.8483 5.93424 75.8418 7.41211V8.32031C75.8418 9.8112 76.125 10.9375 76.6914 11.6992C77.2578 12.4609 78.0879 12.8418 79.1816 12.8418C80.2819 12.8418 81.0664 12.6074 81.5352 12.1387V9.6875H78.8691V7.5293H84.4648V13.2031ZM95.4023 8.83789H89.7773V12.6465H96.3789V15H86.8477V0.78125H96.3594V3.1543H89.7773V6.54297H95.4023V8.83789ZM108.996 3.1543H104.641V15H101.711V3.1543H97.4141V0.78125H108.996V3.1543Z" fill="black"/>
</svg>
